<svg width="200" height="170" viewBox="0 0 200 170" fill="none" xmlns="http://www.w3.org/2000/svg">
<path d="M-13.9692 23.4766C-32.1084 -42.2539 35.0858 -48.9445 83.5778 -29.0973C111.871 -18.8901 130.451 -50.6336 165.5 -37.9652C200.55 -25.2968 158.533 14.6088 212.162 35.0894C265.792 55.5701 239.611 147.205 192.737 148.261C145.864 149.316 158.744 164.73 111.871 199.99C64.9974 235.251 -13.9691 186.266 5.66692 134.537C25.303 82.8071 5.6667 94.631 -13.9692 23.4766Z" stroke="white" stroke-opacity="0.1" stroke-width="1.09076"/>
<path d="M86.9124 74.6312C84.8194 68.3707 94.6224 58.271 102.505 62.5813C109.723 66.5283 117.074 63.8663 121.93 65.6259C134.714 70.2583 130.012 72.7104 135.727 78.2122C142.681 84.9071 146 102.438 130.012 102.438C116.862 102.438 120.797 108.825 110.951 111.654C101.104 114.484 89.9377 109.667 89.9377 96.9856C89.9377 92.2232 90.3982 85.0582 86.9124 74.6312Z" stroke="white" stroke-opacity="0.1" stroke-width="1.09076"/>
<path d="M-4.79911 27.8077C-21.4795 -32.5165 40.4973 -39.517 85.2975 -21.0822C111.674 -11.4442 129.234 -40.5439 161.538 -28.8672C194.564 -16.9293 155.939 19.5714 205.213 38.6903C254.599 57.9177 231.1 142.816 187.034 143.776C143.227 144.735 155.293 159.328 111.786 191.64C68.2789 223.952 -4.52398 178.983 13.327 130.803C31.1779 83.3438 13.3686 93.4414 -4.79911 27.8077Z" stroke="white" stroke-opacity="0.1" stroke-width="1.09076"/>
<path d="M4.37107 32.1394C-10.8506 -22.7784 45.9089 -30.0888 87.0173 -13.0665C111.478 -3.99754 128.017 -30.4535 157.577 -19.7685C188.578 -8.56114 153.345 24.5347 198.263 42.2919C243.407 60.2661 222.589 138.428 181.331 139.291C140.589 140.155 151.843 153.927 111.701 183.291C71.5605 212.655 4.92121 171.701 20.9871 127.071C37.0529 83.8811 21.0706 92.2525 4.37107 32.1394Z" stroke="white" stroke-opacity="0.1" stroke-width="1.09076"/>
<path d="M13.5393 36.4709C-0.223564 -13.0405 51.3185 -20.6608 88.7351 -5.05099C111.28 3.44884 126.798 -20.3633 153.613 -10.67C182.59 -0.193233 150.75 29.4978 191.312 45.8932C232.212 62.6141 214.076 134.039 175.626 134.807C137.95 135.574 148.39 148.526 111.615 174.942C74.8401 201.357 14.3645 164.418 28.6453 123.338C42.926 84.4182 28.7707 91.0633 13.5393 36.4709Z" stroke="white" stroke-opacity="0.1" stroke-width="1.09076"/>
<path d="M22.7097 40.802C10.4055 -3.30305 56.7302 -11.2333 90.4551 2.9641C111.084 10.8948 125.581 -10.2736 149.651 -1.57198C176.604 8.17427 148.156 34.4604 184.362 49.4942C221.019 64.9618 205.565 129.65 169.923 130.322C135.313 130.993 144.94 143.124 111.531 166.592C78.1218 190.059 23.8098 157.136 36.3055 119.605C48.8012 84.9549 36.4728 89.8737 22.7097 40.802Z" stroke="white" stroke-opacity="0.1" stroke-width="1.09076"/>
<path d="M31.8801 45.3533C21.0347 6.65459 62.1419 -1.58559 92.1751 11.1994C110.889 18.561 124.364 0.0363569 145.69 7.74624C170.619 16.7619 145.563 39.6432 177.413 53.3153C209.827 67.5297 197.054 125.481 164.22 126.057C132.676 126.633 141.489 137.943 111.446 158.462C81.4036 178.981 33.2553 150.073 43.9658 116.093C54.6764 85.7117 44.175 88.9043 31.8801 45.3533Z" stroke="white" stroke-opacity="0.1" stroke-width="1.09076"/>
<path d="M41.0506 50.1648C31.664 16.8724 67.5539 8.32235 93.8952 19.6948C110.693 26.4874 123.148 10.6065 141.728 17.3247C164.633 25.6098 142.969 45.0862 170.464 57.3966C198.634 70.3577 188.544 121.572 158.517 122.052C130.039 122.532 138.039 133.022 111.362 150.593C84.6855 168.164 42.7008 143.271 51.6263 112.84C60.5518 86.7288 51.8774 88.1951 41.0506 50.1648Z" stroke="white" stroke-opacity="0.1" stroke-width="1.09076"/>
<path d="M50.2214 54.9899C42.2935 27.104 72.966 18.2439 95.6156 28.204C110.497 34.4274 121.931 21.1903 137.767 26.9168C158.648 34.4714 140.376 50.5429 163.515 61.4915C187.442 73.1994 180.033 117.677 152.814 118.061C127.402 118.445 134.589 128.114 111.278 142.737C87.9677 157.36 52.1466 136.482 59.287 109.601C66.4274 87.7595 59.58 87.4996 50.2214 54.9899Z" stroke="white" stroke-opacity="0.1" stroke-width="1.09076"/>
<path d="M59.3926 59.8362C52.9234 37.3566 78.3785 28.1867 97.3364 36.7343C110.302 42.3886 120.715 31.7953 133.806 36.53C152.663 43.3541 137.784 56.0207 156.566 65.6077C176.25 76.0623 171.523 113.803 147.112 114.091C124.765 114.379 131.139 123.228 111.195 134.902C91.2502 146.577 61.5928 129.714 66.9481 106.383C72.3034 88.8114 67.283 86.8252 59.3926 59.8362Z" stroke="white" stroke-opacity="0.1" stroke-width="1.09076"/>
<path d="M68.5634 64.7126C63.553 47.6394 83.7907 38.1596 99.0568 45.2947C110.107 50.3799 119.499 42.4304 129.845 46.1734C146.678 52.2669 135.191 61.5287 149.617 69.7539C165.058 78.9553 163.013 109.96 141.41 110.152C122.129 110.344 127.689 118.371 111.111 127.098C94.5324 135.824 71.0387 122.977 74.6089 103.195C78.1791 89.8934 74.9856 86.181 68.5634 64.7126Z" stroke="white" stroke-opacity="0.1" stroke-width="1.09076"/>
<path d="M77.7375 69.6358C74.1859 57.969 89.2062 48.1792 100.781 53.9019C109.915 58.418 118.286 53.1122 125.887 55.8636C140.696 61.2265 132.601 67.0835 142.672 73.947C153.869 81.8951 154.506 106.163 135.71 106.259C119.495 106.355 124.243 113.562 111.03 119.34C97.818 125.118 80.4878 116.286 82.2729 100.054C84.058 91.0222 82.6915 85.5835 77.7375 69.6358Z" stroke="white" stroke-opacity="0.1" stroke-width="1.09076"/>
</svg>
